<mxfile host="app.diagrams.net" modified="2022-11-09T15:07:48.243Z" agent="5.0 (Windows)" etag="Qz_2sJi3ScZHqn2B4xjy" version="20.5.3" type="github">
  <diagram id="E9-wej85IpPJejZK325P" name="Page-1">
    <mxGraphModel dx="2143" dy="1809" grid="1" gridSize="10" guides="1" tooltips="1" connect="1" arrows="1" fold="1" page="1" pageScale="1" pageWidth="850" pageHeight="1100" math="0" shadow="0">
      <root>
        <mxCell id="0" />
        <mxCell id="1" parent="0" />
        <mxCell id="lN7asvE-8VRLSh5YdZQm-96" value="Unlocks Assesment" style="shape=umlFrame;whiteSpace=wrap;html=1;fillColor=#fff2cc;strokeColor=#d6b656;strokeWidth=3;width=100;height=40;" vertex="1" parent="1">
          <mxGeometry x="-540" y="1020" width="360" height="510" as="geometry" />
        </mxCell>
        <mxCell id="lN7asvE-8VRLSh5YdZQm-95" value="Gameplay" style="shape=umlFrame;whiteSpace=wrap;html=1;fillColor=#d5e8d4;strokeColor=#82b366;strokeWidth=3;width=80;height=30;" vertex="1" parent="1">
          <mxGeometry x="-160" y="540" width="450" height="700" as="geometry" />
        </mxCell>
        <mxCell id="lN7asvE-8VRLSh5YdZQm-97" value="Other" style="shape=umlFrame;whiteSpace=wrap;html=1;fillColor=#dae8fc;strokeColor=#6c8ebf;strokeWidth=3;" vertex="1" parent="1">
          <mxGeometry x="-140" y="-150" width="620" height="210" as="geometry" />
        </mxCell>
        <mxCell id="lN7asvE-8VRLSh5YdZQm-1" value="" style="ellipse;html=1;shape=endState;fillColor=#000000;strokeColor=#ff0000;" vertex="1" parent="1">
          <mxGeometry x="370" y="-190" width="30" height="30" as="geometry" />
        </mxCell>
        <mxCell id="lN7asvE-8VRLSh5YdZQm-45" style="edgeStyle=orthogonalEdgeStyle;rounded=0;orthogonalLoop=1;jettySize=auto;html=1;" edge="1" parent="1" source="lN7asvE-8VRLSh5YdZQm-2" target="lN7asvE-8VRLSh5YdZQm-22">
          <mxGeometry relative="1" as="geometry" />
        </mxCell>
        <mxCell id="lN7asvE-8VRLSh5YdZQm-2" value="" style="ellipse;html=1;shape=startState;fillColor=#000000;strokeColor=#ff0000;" vertex="1" parent="1">
          <mxGeometry x="125" y="-200" width="30" height="30" as="geometry" />
        </mxCell>
        <mxCell id="lN7asvE-8VRLSh5YdZQm-7" value="Desired Flow" style="rounded=0;whiteSpace=wrap;html=1;fillColor=#fff2cc;gradientColor=#ffd966;strokeColor=#d6b656;" vertex="1" parent="1">
          <mxGeometry x="80" y="-280" width="120" height="60" as="geometry" />
        </mxCell>
        <mxCell id="lN7asvE-8VRLSh5YdZQm-8" value="&lt;div&gt;Current Flow&lt;/div&gt;" style="rounded=0;whiteSpace=wrap;html=1;" vertex="1" parent="1">
          <mxGeometry x="810" y="-240" width="120" height="60" as="geometry" />
        </mxCell>
        <mxCell id="lN7asvE-8VRLSh5YdZQm-49" style="edgeStyle=orthogonalEdgeStyle;rounded=0;orthogonalLoop=1;jettySize=auto;html=1;" edge="1" parent="1" source="lN7asvE-8VRLSh5YdZQm-9" target="lN7asvE-8VRLSh5YdZQm-43">
          <mxGeometry relative="1" as="geometry" />
        </mxCell>
        <mxCell id="lN7asvE-8VRLSh5YdZQm-9" value="VRmazing Menu" style="rounded=0;whiteSpace=wrap;html=1;" vertex="1" parent="1">
          <mxGeometry x="80" y="110" width="120" height="60" as="geometry" />
        </mxCell>
        <mxCell id="lN7asvE-8VRLSh5YdZQm-55" style="edgeStyle=orthogonalEdgeStyle;rounded=0;orthogonalLoop=1;jettySize=auto;html=1;" edge="1" parent="1" source="lN7asvE-8VRLSh5YdZQm-10" target="lN7asvE-8VRLSh5YdZQm-32">
          <mxGeometry relative="1" as="geometry" />
        </mxCell>
        <mxCell id="lN7asvE-8VRLSh5YdZQm-10" value="Playing game" style="rounded=0;whiteSpace=wrap;html=1;" vertex="1" parent="1">
          <mxGeometry x="-80" y="560" width="120" height="60" as="geometry" />
        </mxCell>
        <mxCell id="lN7asvE-8VRLSh5YdZQm-54" value="Play" style="edgeStyle=orthogonalEdgeStyle;rounded=0;orthogonalLoop=1;jettySize=auto;html=1;" edge="1" parent="1" source="lN7asvE-8VRLSh5YdZQm-14" target="lN7asvE-8VRLSh5YdZQm-10">
          <mxGeometry relative="1" as="geometry" />
        </mxCell>
        <mxCell id="lN7asvE-8VRLSh5YdZQm-101" value="Leave VRmazing" style="edgeStyle=orthogonalEdgeStyle;rounded=0;orthogonalLoop=1;jettySize=auto;html=1;" edge="1" parent="1" source="lN7asvE-8VRLSh5YdZQm-14" target="lN7asvE-8VRLSh5YdZQm-21">
          <mxGeometry relative="1" as="geometry" />
        </mxCell>
        <mxCell id="lN7asvE-8VRLSh5YdZQm-102" value="Edit" style="edgeStyle=orthogonalEdgeStyle;rounded=0;orthogonalLoop=1;jettySize=auto;html=1;" edge="1" parent="1" source="lN7asvE-8VRLSh5YdZQm-14" target="lN7asvE-8VRLSh5YdZQm-100">
          <mxGeometry x="0.4286" relative="1" as="geometry">
            <mxPoint as="offset" />
          </mxGeometry>
        </mxCell>
        <mxCell id="lN7asvE-8VRLSh5YdZQm-14" value="Play or edit game?" style="rhombus;whiteSpace=wrap;html=1;" vertex="1" parent="1">
          <mxGeometry x="100" y="440" width="80" height="80" as="geometry" />
        </mxCell>
        <mxCell id="lN7asvE-8VRLSh5YdZQm-82" style="edgeStyle=orthogonalEdgeStyle;rounded=0;orthogonalLoop=1;jettySize=auto;html=1;" edge="1" parent="1" source="lN7asvE-8VRLSh5YdZQm-16" target="lN7asvE-8VRLSh5YdZQm-9">
          <mxGeometry relative="1" as="geometry">
            <Array as="points">
              <mxPoint x="-260" y="1580" />
              <mxPoint x="-620" y="1580" />
              <mxPoint x="-620" y="140" />
            </Array>
          </mxGeometry>
        </mxCell>
        <mxCell id="lN7asvE-8VRLSh5YdZQm-83" value="Yes" style="edgeStyle=orthogonalEdgeStyle;rounded=0;orthogonalLoop=1;jettySize=auto;html=1;" edge="1" parent="1" source="lN7asvE-8VRLSh5YdZQm-16" target="lN7asvE-8VRLSh5YdZQm-31">
          <mxGeometry relative="1" as="geometry" />
        </mxCell>
        <mxCell id="lN7asvE-8VRLSh5YdZQm-16" value="Played with default gameplay settings?" style="rhombus;whiteSpace=wrap;html=1;" vertex="1" parent="1">
          <mxGeometry x="-300" y="1430" width="80" height="80" as="geometry" />
        </mxCell>
        <mxCell id="lN7asvE-8VRLSh5YdZQm-81" value="No" style="edgeStyle=orthogonalEdgeStyle;rounded=0;orthogonalLoop=1;jettySize=auto;html=1;" edge="1" parent="1" source="lN7asvE-8VRLSh5YdZQm-17" target="lN7asvE-8VRLSh5YdZQm-16">
          <mxGeometry relative="1" as="geometry" />
        </mxCell>
        <mxCell id="lN7asvE-8VRLSh5YdZQm-84" value="Yes" style="edgeStyle=orthogonalEdgeStyle;rounded=0;orthogonalLoop=1;jettySize=auto;html=1;" edge="1" parent="1" source="lN7asvE-8VRLSh5YdZQm-17" target="lN7asvE-8VRLSh5YdZQm-30">
          <mxGeometry relative="1" as="geometry" />
        </mxCell>
        <mxCell id="lN7asvE-8VRLSh5YdZQm-17" value="Played with default level?" style="rhombus;whiteSpace=wrap;html=1;" vertex="1" parent="1">
          <mxGeometry x="-300" y="1290" width="80" height="80" as="geometry" />
        </mxCell>
        <mxCell id="lN7asvE-8VRLSh5YdZQm-80" value="No" style="edgeStyle=orthogonalEdgeStyle;rounded=0;orthogonalLoop=1;jettySize=auto;html=1;" edge="1" parent="1" source="lN7asvE-8VRLSh5YdZQm-18" target="lN7asvE-8VRLSh5YdZQm-17">
          <mxGeometry relative="1" as="geometry" />
        </mxCell>
        <mxCell id="lN7asvE-8VRLSh5YdZQm-85" value="Yes" style="edgeStyle=orthogonalEdgeStyle;rounded=0;orthogonalLoop=1;jettySize=auto;html=1;" edge="1" parent="1" source="lN7asvE-8VRLSh5YdZQm-18" target="lN7asvE-8VRLSh5YdZQm-29">
          <mxGeometry relative="1" as="geometry" />
        </mxCell>
        <mxCell id="lN7asvE-8VRLSh5YdZQm-18" value="Played with default textures?" style="rhombus;whiteSpace=wrap;html=1;" vertex="1" parent="1">
          <mxGeometry x="-300" y="1150" width="80" height="80" as="geometry" />
        </mxCell>
        <mxCell id="lN7asvE-8VRLSh5YdZQm-21" value="Return to game selection menu" style="rounded=0;whiteSpace=wrap;html=1;" vertex="1" parent="1">
          <mxGeometry x="340" y="-20" width="120" height="60" as="geometry" />
        </mxCell>
        <mxCell id="lN7asvE-8VRLSh5YdZQm-46" style="edgeStyle=orthogonalEdgeStyle;rounded=0;orthogonalLoop=1;jettySize=auto;html=1;" edge="1" parent="1" source="lN7asvE-8VRLSh5YdZQm-22" target="lN7asvE-8VRLSh5YdZQm-24">
          <mxGeometry relative="1" as="geometry" />
        </mxCell>
        <mxCell id="lN7asvE-8VRLSh5YdZQm-22" value="Opening the application" style="rounded=0;whiteSpace=wrap;html=1;" vertex="1" parent="1">
          <mxGeometry x="80" y="-130" width="120" height="60" as="geometry" />
        </mxCell>
        <mxCell id="lN7asvE-8VRLSh5YdZQm-47" value="&lt;div&gt;Play some &lt;br&gt;&lt;/div&gt;&lt;div&gt;other game&lt;/div&gt;" style="edgeStyle=orthogonalEdgeStyle;rounded=0;orthogonalLoop=1;jettySize=auto;html=1;" edge="1" parent="1" source="lN7asvE-8VRLSh5YdZQm-24" target="lN7asvE-8VRLSh5YdZQm-25">
          <mxGeometry relative="1" as="geometry" />
        </mxCell>
        <mxCell id="lN7asvE-8VRLSh5YdZQm-48" value="&lt;div&gt;Play &lt;br&gt;&lt;/div&gt;&lt;div&gt;VRmazing&lt;/div&gt;" style="edgeStyle=orthogonalEdgeStyle;rounded=0;orthogonalLoop=1;jettySize=auto;html=1;" edge="1" parent="1" source="lN7asvE-8VRLSh5YdZQm-24" target="lN7asvE-8VRLSh5YdZQm-9">
          <mxGeometry relative="1" as="geometry" />
        </mxCell>
        <mxCell id="lN7asvE-8VRLSh5YdZQm-24" value="What game user wants to select?" style="rhombus;whiteSpace=wrap;html=1;" vertex="1" parent="1">
          <mxGeometry x="100" y="-30" width="80" height="80" as="geometry" />
        </mxCell>
        <mxCell id="lN7asvE-8VRLSh5YdZQm-25" value="Other game&#39;s game flow." style="rounded=0;whiteSpace=wrap;html=1;" vertex="1" parent="1">
          <mxGeometry x="-120" y="-20" width="120" height="60" as="geometry" />
        </mxCell>
        <mxCell id="lN7asvE-8VRLSh5YdZQm-79" style="edgeStyle=orthogonalEdgeStyle;rounded=0;orthogonalLoop=1;jettySize=auto;html=1;" edge="1" parent="1" source="lN7asvE-8VRLSh5YdZQm-28" target="lN7asvE-8VRLSh5YdZQm-18">
          <mxGeometry relative="1" as="geometry" />
        </mxCell>
        <mxCell id="lN7asvE-8VRLSh5YdZQm-28" value="Add asset pack completion trophy to collection." style="rounded=0;whiteSpace=wrap;html=1;" vertex="1" parent="1">
          <mxGeometry x="-320" y="1040" width="120" height="60" as="geometry" />
        </mxCell>
        <mxCell id="lN7asvE-8VRLSh5YdZQm-86" style="edgeStyle=orthogonalEdgeStyle;rounded=0;orthogonalLoop=1;jettySize=auto;html=1;entryX=0;entryY=0.5;entryDx=0;entryDy=0;" edge="1" parent="1" source="lN7asvE-8VRLSh5YdZQm-29" target="lN7asvE-8VRLSh5YdZQm-9">
          <mxGeometry relative="1" as="geometry">
            <Array as="points">
              <mxPoint x="-620" y="1190" />
              <mxPoint x="-620" y="140" />
            </Array>
          </mxGeometry>
        </mxCell>
        <mxCell id="lN7asvE-8VRLSh5YdZQm-29" value="Unlock option to change asset textures." style="rounded=0;whiteSpace=wrap;html=1;" vertex="1" parent="1">
          <mxGeometry x="-520" y="1160" width="120" height="60" as="geometry" />
        </mxCell>
        <mxCell id="lN7asvE-8VRLSh5YdZQm-87" style="edgeStyle=orthogonalEdgeStyle;rounded=0;orthogonalLoop=1;jettySize=auto;html=1;entryX=0;entryY=0.5;entryDx=0;entryDy=0;" edge="1" parent="1" source="lN7asvE-8VRLSh5YdZQm-30" target="lN7asvE-8VRLSh5YdZQm-9">
          <mxGeometry relative="1" as="geometry">
            <Array as="points">
              <mxPoint x="-620" y="1330" />
              <mxPoint x="-620" y="140" />
            </Array>
          </mxGeometry>
        </mxCell>
        <mxCell id="lN7asvE-8VRLSh5YdZQm-30" value="Unlock option to change asset level layout." style="rounded=0;whiteSpace=wrap;html=1;" vertex="1" parent="1">
          <mxGeometry x="-520" y="1300" width="120" height="60" as="geometry" />
        </mxCell>
        <mxCell id="lN7asvE-8VRLSh5YdZQm-88" style="edgeStyle=orthogonalEdgeStyle;rounded=0;orthogonalLoop=1;jettySize=auto;html=1;entryX=0;entryY=0.5;entryDx=0;entryDy=0;" edge="1" parent="1" source="lN7asvE-8VRLSh5YdZQm-31" target="lN7asvE-8VRLSh5YdZQm-9">
          <mxGeometry relative="1" as="geometry">
            <Array as="points">
              <mxPoint x="-620" y="1470" />
              <mxPoint x="-620" y="140" />
            </Array>
          </mxGeometry>
        </mxCell>
        <mxCell id="lN7asvE-8VRLSh5YdZQm-31" value="Unlock option to change level gameplay settings." style="rounded=0;whiteSpace=wrap;html=1;" vertex="1" parent="1">
          <mxGeometry x="-520" y="1440" width="120" height="60" as="geometry" />
        </mxCell>
        <mxCell id="lN7asvE-8VRLSh5YdZQm-63" style="edgeStyle=orthogonalEdgeStyle;rounded=0;orthogonalLoop=1;jettySize=auto;html=1;" edge="1" parent="1" source="lN7asvE-8VRLSh5YdZQm-32" target="lN7asvE-8VRLSh5YdZQm-34">
          <mxGeometry relative="1" as="geometry" />
        </mxCell>
        <mxCell id="lN7asvE-8VRLSh5YdZQm-32" value="Traverse level." style="rounded=0;whiteSpace=wrap;html=1;" vertex="1" parent="1">
          <mxGeometry x="-80" y="680" width="120" height="60" as="geometry" />
        </mxCell>
        <mxCell id="lN7asvE-8VRLSh5YdZQm-67" style="edgeStyle=orthogonalEdgeStyle;rounded=0;orthogonalLoop=1;jettySize=auto;html=1;" edge="1" parent="1" source="lN7asvE-8VRLSh5YdZQm-33" target="lN7asvE-8VRLSh5YdZQm-36">
          <mxGeometry relative="1" as="geometry" />
        </mxCell>
        <mxCell id="lN7asvE-8VRLSh5YdZQm-33" value="Defeat Enemies" style="rounded=0;whiteSpace=wrap;html=1;" vertex="1" parent="1">
          <mxGeometry x="100" y="800" width="120" height="60" as="geometry" />
        </mxCell>
        <mxCell id="lN7asvE-8VRLSh5YdZQm-64" style="edgeStyle=orthogonalEdgeStyle;rounded=0;orthogonalLoop=1;jettySize=auto;html=1;" edge="1" parent="1" source="lN7asvE-8VRLSh5YdZQm-34" target="lN7asvE-8VRLSh5YdZQm-33">
          <mxGeometry relative="1" as="geometry" />
        </mxCell>
        <mxCell id="lN7asvE-8VRLSh5YdZQm-34" value="Collect health packs to heal." style="rounded=0;whiteSpace=wrap;html=1;" vertex="1" parent="1">
          <mxGeometry x="100" y="680" width="120" height="60" as="geometry" />
        </mxCell>
        <mxCell id="lN7asvE-8VRLSh5YdZQm-69" style="edgeStyle=orthogonalEdgeStyle;rounded=0;orthogonalLoop=1;jettySize=auto;html=1;" edge="1" parent="1" source="lN7asvE-8VRLSh5YdZQm-35" target="lN7asvE-8VRLSh5YdZQm-39">
          <mxGeometry relative="1" as="geometry" />
        </mxCell>
        <mxCell id="lN7asvE-8VRLSh5YdZQm-35" value="Collect keys to finish the level." style="rounded=0;whiteSpace=wrap;html=1;" vertex="1" parent="1">
          <mxGeometry x="-80" y="800" width="120" height="60" as="geometry" />
        </mxCell>
        <mxCell id="lN7asvE-8VRLSh5YdZQm-68" value="No" style="edgeStyle=orthogonalEdgeStyle;rounded=0;orthogonalLoop=1;jettySize=auto;html=1;entryX=1;entryY=0.5;entryDx=0;entryDy=0;" edge="1" parent="1" source="lN7asvE-8VRLSh5YdZQm-36" target="lN7asvE-8VRLSh5YdZQm-35">
          <mxGeometry relative="1" as="geometry" />
        </mxCell>
        <mxCell id="lN7asvE-8VRLSh5YdZQm-71" value="Yes" style="edgeStyle=orthogonalEdgeStyle;rounded=0;orthogonalLoop=1;jettySize=auto;html=1;" edge="1" parent="1" source="lN7asvE-8VRLSh5YdZQm-36" target="lN7asvE-8VRLSh5YdZQm-37">
          <mxGeometry relative="1" as="geometry" />
        </mxCell>
        <mxCell id="lN7asvE-8VRLSh5YdZQm-36" value="Did player lose all health?" style="rhombus;whiteSpace=wrap;html=1;" vertex="1" parent="1">
          <mxGeometry x="120" y="920" width="80" height="80" as="geometry" />
        </mxCell>
        <mxCell id="lN7asvE-8VRLSh5YdZQm-73" style="edgeStyle=orthogonalEdgeStyle;rounded=0;orthogonalLoop=1;jettySize=auto;html=1;" edge="1" parent="1" source="lN7asvE-8VRLSh5YdZQm-37" target="lN7asvE-8VRLSh5YdZQm-38">
          <mxGeometry relative="1" as="geometry" />
        </mxCell>
        <mxCell id="lN7asvE-8VRLSh5YdZQm-37" value="Show Death Menu" style="rounded=0;whiteSpace=wrap;html=1;" vertex="1" parent="1">
          <mxGeometry x="100" y="1040" width="120" height="60" as="geometry" />
        </mxCell>
        <mxCell id="lN7asvE-8VRLSh5YdZQm-76" value="Back to main menu" style="edgeStyle=orthogonalEdgeStyle;rounded=0;orthogonalLoop=1;jettySize=auto;html=1;" edge="1" parent="1" source="lN7asvE-8VRLSh5YdZQm-38" target="lN7asvE-8VRLSh5YdZQm-9">
          <mxGeometry relative="1" as="geometry">
            <Array as="points">
              <mxPoint x="340" y="1180" />
              <mxPoint x="340" y="140" />
            </Array>
          </mxGeometry>
        </mxCell>
        <mxCell id="lN7asvE-8VRLSh5YdZQm-77" value="Try again" style="edgeStyle=orthogonalEdgeStyle;rounded=0;orthogonalLoop=1;jettySize=auto;html=1;entryX=1;entryY=0.5;entryDx=0;entryDy=0;" edge="1" parent="1" source="lN7asvE-8VRLSh5YdZQm-38" target="lN7asvE-8VRLSh5YdZQm-10">
          <mxGeometry relative="1" as="geometry">
            <Array as="points">
              <mxPoint x="250" y="1180" />
              <mxPoint x="250" y="590" />
            </Array>
          </mxGeometry>
        </mxCell>
        <mxCell id="lN7asvE-8VRLSh5YdZQm-38" value="Back to Menu or try again?" style="rhombus;whiteSpace=wrap;html=1;" vertex="1" parent="1">
          <mxGeometry x="120" y="1140" width="80" height="80" as="geometry" />
        </mxCell>
        <mxCell id="lN7asvE-8VRLSh5YdZQm-70" value="No" style="edgeStyle=orthogonalEdgeStyle;rounded=0;orthogonalLoop=1;jettySize=auto;html=1;entryX=0;entryY=0.5;entryDx=0;entryDy=0;" edge="1" parent="1" source="lN7asvE-8VRLSh5YdZQm-39" target="lN7asvE-8VRLSh5YdZQm-32">
          <mxGeometry relative="1" as="geometry">
            <Array as="points">
              <mxPoint x="-100" y="960" />
              <mxPoint x="-100" y="710" />
            </Array>
          </mxGeometry>
        </mxCell>
        <mxCell id="lN7asvE-8VRLSh5YdZQm-72" value="Yes" style="edgeStyle=orthogonalEdgeStyle;rounded=0;orthogonalLoop=1;jettySize=auto;html=1;" edge="1" parent="1" source="lN7asvE-8VRLSh5YdZQm-39" target="lN7asvE-8VRLSh5YdZQm-40">
          <mxGeometry relative="1" as="geometry" />
        </mxCell>
        <mxCell id="lN7asvE-8VRLSh5YdZQm-39" value="Did player reach the ending position?" style="rhombus;whiteSpace=wrap;html=1;" vertex="1" parent="1">
          <mxGeometry x="-60" y="920" width="80" height="80" as="geometry" />
        </mxCell>
        <mxCell id="lN7asvE-8VRLSh5YdZQm-78" style="edgeStyle=orthogonalEdgeStyle;rounded=0;orthogonalLoop=1;jettySize=auto;html=1;" edge="1" parent="1" source="lN7asvE-8VRLSh5YdZQm-40" target="lN7asvE-8VRLSh5YdZQm-28">
          <mxGeometry relative="1" as="geometry" />
        </mxCell>
        <mxCell id="lN7asvE-8VRLSh5YdZQm-40" value="&lt;div&gt;Show Victory&amp;nbsp; Screen.&lt;/div&gt;" style="rounded=0;whiteSpace=wrap;html=1;" vertex="1" parent="1">
          <mxGeometry x="-80" y="1040" width="120" height="60" as="geometry" />
        </mxCell>
        <mxCell id="lN7asvE-8VRLSh5YdZQm-50" value="No" style="edgeStyle=orthogonalEdgeStyle;rounded=0;orthogonalLoop=1;jettySize=auto;html=1;" edge="1" parent="1" source="lN7asvE-8VRLSh5YdZQm-43" target="lN7asvE-8VRLSh5YdZQm-14">
          <mxGeometry relative="1" as="geometry" />
        </mxCell>
        <mxCell id="lN7asvE-8VRLSh5YdZQm-51" value="Yes" style="edgeStyle=orthogonalEdgeStyle;rounded=0;orthogonalLoop=1;jettySize=auto;html=1;" edge="1" parent="1" source="lN7asvE-8VRLSh5YdZQm-43" target="lN7asvE-8VRLSh5YdZQm-44">
          <mxGeometry relative="1" as="geometry" />
        </mxCell>
        <mxCell id="lN7asvE-8VRLSh5YdZQm-43" value="Is something new unlocked?" style="rhombus;whiteSpace=wrap;html=1;" vertex="1" parent="1">
          <mxGeometry x="100" y="200" width="80" height="80" as="geometry" />
        </mxCell>
        <mxCell id="lN7asvE-8VRLSh5YdZQm-53" style="edgeStyle=orthogonalEdgeStyle;rounded=0;orthogonalLoop=1;jettySize=auto;html=1;" edge="1" parent="1" source="lN7asvE-8VRLSh5YdZQm-44" target="lN7asvE-8VRLSh5YdZQm-14">
          <mxGeometry relative="1" as="geometry">
            <Array as="points">
              <mxPoint x="260" y="400" />
              <mxPoint x="140" y="400" />
            </Array>
          </mxGeometry>
        </mxCell>
        <mxCell id="lN7asvE-8VRLSh5YdZQm-44" value="&lt;div&gt;Show announcement message.&lt;/div&gt;" style="rounded=0;whiteSpace=wrap;html=1;" vertex="1" parent="1">
          <mxGeometry x="200" y="330" width="120" height="60" as="geometry" />
        </mxCell>
        <mxCell id="lN7asvE-8VRLSh5YdZQm-109" style="edgeStyle=orthogonalEdgeStyle;rounded=0;orthogonalLoop=1;jettySize=auto;html=1;" edge="1" parent="1" source="lN7asvE-8VRLSh5YdZQm-100" target="lN7asvE-8VRLSh5YdZQm-103">
          <mxGeometry relative="1" as="geometry" />
        </mxCell>
        <mxCell id="lN7asvE-8VRLSh5YdZQm-100" value="Opening Settings Menu" style="rounded=0;whiteSpace=wrap;html=1;strokeWidth=1;" vertex="1" parent="1">
          <mxGeometry x="510" y="560" width="120" height="60" as="geometry" />
        </mxCell>
        <mxCell id="lN7asvE-8VRLSh5YdZQm-110" style="edgeStyle=orthogonalEdgeStyle;rounded=0;orthogonalLoop=1;jettySize=auto;html=1;" edge="1" parent="1" source="lN7asvE-8VRLSh5YdZQm-103" target="lN7asvE-8VRLSh5YdZQm-105">
          <mxGeometry relative="1" as="geometry" />
        </mxCell>
        <mxCell id="lN7asvE-8VRLSh5YdZQm-103" value="Show all saved textures on the list." style="rounded=0;whiteSpace=wrap;html=1;strokeWidth=1;" vertex="1" parent="1">
          <mxGeometry x="510" y="660" width="120" height="60" as="geometry" />
        </mxCell>
        <mxCell id="lN7asvE-8VRLSh5YdZQm-104" value="Show all saved level layouts." style="rounded=0;whiteSpace=wrap;html=1;strokeWidth=1;" vertex="1" parent="1">
          <mxGeometry x="800" y="660" width="120" height="60" as="geometry" />
        </mxCell>
        <mxCell id="lN7asvE-8VRLSh5YdZQm-111" value="&lt;div&gt;Save and return to &lt;br&gt;&lt;/div&gt;&lt;div&gt;main menu&lt;/div&gt;" style="edgeStyle=orthogonalEdgeStyle;rounded=0;orthogonalLoop=1;jettySize=auto;html=1;" edge="1" parent="1" source="lN7asvE-8VRLSh5YdZQm-105" target="lN7asvE-8VRLSh5YdZQm-9">
          <mxGeometry x="-0.798" relative="1" as="geometry">
            <Array as="points">
              <mxPoint x="460" y="800" />
              <mxPoint x="460" y="140" />
            </Array>
            <mxPoint as="offset" />
          </mxGeometry>
        </mxCell>
        <mxCell id="lN7asvE-8VRLSh5YdZQm-105" value="What&#39;s next?" style="rhombus;whiteSpace=wrap;html=1;strokeWidth=1;" vertex="1" parent="1">
          <mxGeometry x="530" y="760" width="80" height="80" as="geometry" />
        </mxCell>
        <mxCell id="lN7asvE-8VRLSh5YdZQm-106" value="&lt;div&gt;Save newly scanned texture.&lt;/div&gt;" style="rounded=0;whiteSpace=wrap;html=1;strokeWidth=1;" vertex="1" parent="1">
          <mxGeometry x="640" y="880" width="120" height="60" as="geometry" />
        </mxCell>
        <mxCell id="lN7asvE-8VRLSh5YdZQm-107" value="Change currently selected textures." style="rounded=0;whiteSpace=wrap;html=1;strokeWidth=1;" vertex="1" parent="1">
          <mxGeometry x="640" y="1000" width="120" height="60" as="geometry" />
        </mxCell>
      </root>
    </mxGraphModel>
  </diagram>
</mxfile>
